<?xml version="1.0" standalone="no"?>
<!DOCTYPE svg PUBLIC "-//W3C//DTD SVG 20010904//EN"
 "http://www.w3.org/TR/2001/REC-SVG-20010904/DTD/svg10.dtd">
<svg version="1.0" xmlns="http://www.w3.org/2000/svg"
 width="783.000000pt" height="783.000000pt" viewBox="0 0 783.000000 783.000000"
 preserveAspectRatio="xMidYMid meet">
<metadata>
Created by potrace 1.15, written by Peter Selinger 2001-2017
</metadata>
<g transform="translate(0.000000,783.000000) scale(0.100000,-0.100000)"
fill="#000000" stroke="none">
<path d="M2496 6890 c-37 -72 -66 -137 -64 -146 2 -9 125 -70 313 -156 171
-77 362 -164 425 -192 75 -34 115 -58 114 -68 -1 -14 -76 -122 -343 -493 -63
-88 -115 -168 -115 -179 -1 -19 27 -37 609 -381 138 -82 342 -203 455 -270
113 -67 219 -129 235 -138 17 -8 138 -43 270 -77 547 -140 684 -175 964 -246
162 -41 298 -71 302 -67 4 4 23 116 43 248 31 215 41 302 61 565 3 41 9 78 13
82 6 6 756 -296 820 -331 l22 -12 0 -429 0 -429 -27 -26 c-15 -14 -31 -25 -34
-25 -12 0 -50 -92 -70 -169 -34 -130 -49 -277 -56 -529 l-6 -242 249 2 249 3
-1 275 c-1 244 -3 287 -23 380 -35 167 -76 241 -153 281 l-38 19 0 420 c0 234
4 421 9 424 5 3 29 -2 55 -11 25 -9 48 -14 51 -11 9 9 114 245 120 271 6 21
-8 28 -197 104 -495 199 -1472 592 -1783 718 -342 138 -787 317 -1490 600
-209 84 -492 199 -630 255 -137 56 -257 104 -266 107 -12 3 -32 -28 -83 -127z
m3200 -1782 c-4 -40 -11 -93 -16 -118 -5 -25 -19 -125 -32 -223 -12 -97 -25
-183 -29 -189 -6 -9 -30 -6 -96 14 -580 170 -682 203 -674 211 6 6 25 6 53 -1
24 -6 86 -16 138 -22 52 -6 120 -15 150 -21 124 -23 295 -47 304 -43 12 5 26
37 121 287 38 97 73 177 78 177 5 0 6 -30 3 -72z"/>
<path d="M2829 5473 c-100 -81 -209 -187 -266 -258 -36 -44 -70 -83 -77 -86
-6 -4 -63 1 -126 11 -86 13 -118 15 -127 6 -14 -14 -255 -576 -251 -586 2 -4
49 -42 106 -84 l102 -76 -7 -73 c-9 -82 -10 -277 -3 -386 l5 -74 -61 -51 c-33
-28 -80 -67 -104 -87 l-44 -35 147 -297 c135 -275 148 -297 169 -293 13 3 52
12 88 20 111 26 118 26 153 -19 54 -69 203 -218 276 -275 39 -30 73 -63 76
-73 4 -10 -3 -60 -15 -112 -12 -52 -20 -102 -18 -111 3 -17 590 -268 613 -262
7 2 47 50 90 106 66 89 80 103 99 97 33 -11 274 -14 341 -5 33 4 83 11 111 14
l51 6 56 -77 c32 -43 68 -91 81 -107 l24 -29 94 40 c51 23 179 78 283 123 105
45 195 87 201 94 11 11 4 165 -11 243 -5 28 -1 36 27 60 57 48 228 226 272
283 28 36 49 54 62 53 159 -17 258 -23 265 -16 11 11 249 575 249 590 0 6 -30
28 -67 48 -38 21 -91 53 -119 71 l-51 33 5 181 c3 122 1 204 -8 254 l-12 74
-105 27 c-57 15 -107 24 -110 21 -3 -3 -1 -37 6 -75 15 -97 14 -348 -3 -463
-48 -321 -199 -607 -439 -834 -368 -348 -881 -483 -1367 -359 -148 37 -304
103 -397 166 -23 16 -44 29 -47 29 -14 0 -176 133 -228 186 -103 107 -129 138
-182 219 -72 109 -96 153 -143 270 -74 182 -98 288 -109 480 -15 288 46 543
194 805 90 159 249 338 400 449 39 30 72 57 72 60 0 5 -151 95 -181 109 -4 2
-22 -10 -40 -25z"/>
<path d="M4204 4608 c-4 -6 -8 -30 -8 -52 l-1 -40 -71 -26 c-38 -14 -93 -37
-120 -52 l-51 -27 -36 37 -37 37 -75 -75 c-41 -41 -75 -79 -75 -84 0 -6 14
-25 31 -42 l32 -33 -36 -73 c-20 -40 -42 -93 -49 -118 l-13 -45 -52 -3 -53 -3
0 -109 0 -109 51 -3 51 -3 27 -80 c15 -44 38 -99 51 -122 l25 -42 -33 -33
c-17 -19 -32 -38 -32 -42 0 -13 132 -146 145 -146 6 0 24 14 40 30 33 35 47
37 83 12 37 -26 91 -49 132 -57 63 -13 70 -21 70 -75 l0 -50 109 0 110 0 3 52
3 52 75 26 c41 14 91 35 111 48 47 28 52 28 86 -8 15 -16 33 -30 38 -30 6 0
44 33 84 74 l74 75 -37 41 -37 41 19 27 c25 35 58 111 67 153 11 50 22 59 77
59 l49 0 -3 108 -3 107 -51 3 -52 3 -20 62 c-25 74 -47 124 -68 154 -14 20
-13 23 15 56 17 19 31 41 31 49 0 8 -32 45 -70 83 l-71 68 -32 -31 c-18 -18
-40 -32 -48 -32 -9 0 -40 13 -70 29 -30 16 -74 35 -99 42 -62 17 -69 24 -72
77 l-3 47 -102 2 c-68 2 -104 -1 -109 -9z m229 -268 c86 -24 144 -58 204 -118
162 -162 172 -444 23 -624 -44 -53 -141 -115 -219 -138 -323 -100 -644 180
-586 512 48 276 312 445 578 368z"/>
<path d="M2990 4461 c0 -10 -7 -24 -15 -31 -15 -12 -55 -5 -55 11 0 13 -34 11
-47 -2 -7 -7 -10 -24 -7 -39 8 -36 -16 -56 -47 -39 -19 10 -25 9 -36 -7 -18
-25 -16 -39 8 -56 30 -19 18 -56 -19 -60 -21 -2 -28 -9 -30 -30 -3 -22 1 -27
24 -30 39 -4 50 -41 21 -68 -31 -29 -13 -55 39 -55 39 0 39 0 39 -39 0 -31 5
-41 23 -49 18 -8 25 -7 35 7 16 21 61 18 63 -4 1 -8 2 -21 3 -27 0 -7 14 -13
30 -13 25 0 30 4 33 28 2 20 9 28 27 30 15 2 28 -3 33 -12 21 -37 61 -10 62
41 1 37 2 38 39 38 51 0 71 30 36 56 -20 15 -22 20 -11 43 8 18 19 26 37 26
44 0 30 55 -15 61 -33 5 -39 43 -11 61 25 15 26 26 5 49 -13 15 -20 16 -41 6
-21 -9 -27 -8 -39 7 -10 14 -11 24 -2 39 8 16 7 23 -8 34 -23 17 -34 16 -55
-3 -25 -22 -59 -10 -59 22 0 20 -5 24 -30 24 -23 0 -30 -5 -30 -19z m113 -123
c42 -30 53 -45 67 -95 28 -99 -49 -193 -158 -193 -75 0 -152 78 -152 154 0 49
33 109 76 136 42 28 126 27 167 -2z"/>
<path d="M2970 4260 c-30 -30 -27 -83 6 -109 15 -12 34 -21 44 -21 34 0 70 39
70 75 0 62 -77 98 -120 55z"/>
<path d="M3251 3790 c-22 -19 -24 -19 -52 -3 -29 17 -30 17 -54 -9 -22 -24
-29 -26 -52 -17 -29 11 -31 9 -47 -23 -8 -15 -23 -25 -46 -28 -32 -5 -35 -8
-38 -41 -3 -32 -7 -38 -33 -43 -28 -5 -30 -8 -23 -41 5 -30 2 -41 -17 -61 -20
-21 -21 -28 -11 -44 7 -11 12 -27 12 -35 0 -8 -5 -24 -12 -35 -10 -16 -9 -23
11 -43 18 -20 21 -31 16 -59 -6 -33 -5 -36 24 -41 27 -6 31 -10 31 -41 0 -34
17 -50 43 -41 17 6 30 -5 44 -37 11 -23 16 -26 45 -22 25 5 38 1 52 -15 23
-25 34 -26 57 -5 16 15 20 14 49 -3 31 -18 32 -18 51 6 16 19 25 22 54 17 32
-6 35 -5 49 29 12 29 20 35 44 35 26 0 31 4 36 34 5 26 13 37 37 45 28 10 30
13 23 46 -5 29 -2 38 17 54 20 17 22 22 11 38 -23 34 -24 44 -8 62 21 24 20
37 -5 55 -18 12 -21 21 -16 51 6 34 4 38 -23 48 -21 8 -30 18 -30 33 0 41 -11
54 -44 54 -26 0 -34 5 -43 31 -11 28 -14 30 -47 24 -30 -6 -39 -3 -58 19 l-23
25 -24 -19z m62 -259 c28 -28 32 -38 32 -87 0 -51 -3 -58 -37 -90 -32 -28 -45
-34 -84 -34 -41 0 -51 5 -85 39 -32 32 -39 45 -39 77 1 87 51 136 133 130 39
-3 55 -10 80 -35z"/>
<path d="M5473 1792 l-133 -3 0 -69 0 -70 108 0 c71 0 112 -4 120 -12 9 -9 12
-82 12 -265 l0 -253 75 0 75 0 2 263 3 262 115 5 115 5 3 67 3 67 -183 3
c-101 2 -243 2 -315 0z"/>
<path d="M1793 1776 c-108 -35 -187 -108 -224 -205 -17 -45 -20 -72 -17 -132
8 -134 73 -230 197 -288 49 -22 69 -26 156 -26 88 0 107 3 157 27 54 25 148
106 148 128 0 5 -27 24 -61 40 l-61 31 -26 -27 c-39 -39 -100 -64 -157 -64
-40 0 -63 7 -105 33 -178 107 -103 356 108 357 59 0 126 -27 162 -65 l23 -24
58 30 c33 16 59 34 59 39 0 23 -85 101 -137 126 -44 22 -71 28 -146 30 -60 3
-107 -1 -134 -10z"/>
<path d="M2533 1763 c-6 -15 -67 -162 -137 -326 -69 -164 -126 -302 -126 -307
0 -6 34 -10 76 -10 l75 0 20 45 c11 25 25 46 32 46 56 6 305 5 318 -2 8 -4 24
-26 34 -48 l18 -41 79 0 c43 0 78 2 78 4 0 3 -54 132 -120 288 -67 156 -129
303 -140 328 l-19 45 -88 3 -88 3 -12 -28z m114 -175 c14 -20 96 -228 91 -233
-5 -5 -104 -9 -165 -7 -27 1 -43 7 -43 15 0 19 92 237 100 237 4 0 12 -6 17
-12z"/>
<path d="M3140 1455 l0 -335 75 0 75 0 0 79 c0 85 4 91 58 91 56 0 71 -12 121
-91 l51 -79 91 0 91 0 -18 28 c-9 15 -38 57 -62 94 l-45 68 36 39 c20 22 43
54 53 72 23 45 30 148 14 206 -18 61 -89 137 -145 152 -22 6 -120 11 -217 11
l-178 0 0 -335z m367 160 c33 -33 35 -39 30 -82 -4 -37 -12 -54 -37 -76 -30
-27 -35 -28 -118 -25 l-87 3 -3 94 c-1 52 -1 100 2 108 4 9 29 13 92 13 85 0
86 0 121 -35z"/>
<path d="M3830 1455 l0 -335 75 0 75 0 0 200 c0 158 3 200 13 200 7 0 87 -90
176 -200 l164 -201 76 3 76 3 0 330 0 330 -72 3 -73 3 0 -195 c0 -208 -5 -231
-44 -184 -12 14 -55 67 -96 118 -41 51 -106 131 -144 176 l-69 84 -78 0 -79 0
0 -335z"/>
<path d="M4841 1775 c-102 -32 -184 -115 -220 -222 -26 -78 -26 -114 -1 -197
26 -83 104 -172 182 -207 79 -35 212 -34 288 2 72 34 136 97 168 167 22 47 27
71 27 137 0 88 -20 144 -72 210 -83 105 -240 151 -372 110z m200 -148 c62 -33
109 -104 109 -167 0 -102 -83 -189 -187 -198 -121 -10 -223 81 -223 200 0 98
98 188 205 188 35 0 66 -8 96 -23z"/>
</g>
</svg>
