<?xml version="1.0" standalone="no"?>
<!DOCTYPE svg PUBLIC "-//W3C//DTD SVG 20010904//EN"
 "http://www.w3.org/TR/2001/REC-SVG-20010904/DTD/svg10.dtd">
<svg version="1.0" xmlns="http://www.w3.org/2000/svg"
 width="453.000000pt" height="453.000000pt" viewBox="0 0 453.000000 453.000000"
 preserveAspectRatio="xMidYMid meet">
<metadata>
Created by potrace 1.15, written by Peter Selinger 2001-2017
</metadata>
<g transform="translate(0.000000,453.000000) scale(0.100000,-0.100000)"
fill="#000000" stroke="none">
<path d="M1446 4161 c-28 -55 -42 -92 -35 -96 5 -4 128 -60 272 -126 144 -65
263 -123 265 -128 2 -6 -64 -105 -147 -221 -83 -116 -151 -213 -151 -215 0 -2
89 -57 198 -121 108 -65 269 -160 357 -212 88 -52 189 -112 224 -133 78 -47
53 -39 466 -143 187 -48 391 -100 454 -116 63 -17 116 -29 118 -26 9 8 42 239
53 363 16 181 20 213 28 213 4 -1 124 -49 267 -108 l260 -108 3 -278 2 -277
-28 -24 c-53 -44 -80 -175 -89 -432 -6 -165 -5 -173 13 -174 36 -1 259 -1 283
0 l24 1 -6 188 c-8 254 -39 372 -107 407 l-30 16 0 270 0 271 23 -6 c47 -15
50 -12 90 82 22 50 38 94 36 95 -2 2 -240 99 -529 214 -562 226 -1019 410
-1485 598 -159 65 -396 160 -525 212 -129 52 -240 97 -247 100 -7 3 -30 -31
-57 -86z m2029 -1233 c-26 -220 -28 -232 -46 -236 -20 -4 -460 126 -474 140
-7 7 0 8 20 4 59 -12 350 -56 371 -56 20 0 50 62 119 253 10 26 20 45 23 43 2
-3 -3 -69 -13 -148z"/>
<path d="M1633 3242 c-50 -40 -119 -112 -165 -171 l-26 -34 -78 12 c-43 6 -81
8 -85 4 -12 -12 -160 -365 -157 -374 2 -4 30 -28 62 -52 l59 -44 1 -177 1
-177 -62 -47 c-34 -26 -62 -51 -63 -56 0 -4 41 -92 90 -193 l91 -186 37 7
c114 22 114 21 150 -23 31 -39 89 -96 175 -172 l39 -34 -16 -69 c-9 -38 -13
-73 -8 -78 4 -4 51 -26 105 -48 53 -22 139 -57 190 -79 l94 -38 49 64 50 64
154 3 c85 1 162 6 171 10 11 5 25 -8 53 -47 65 -95 47 -95 246 -8 96 42 180
79 185 83 7 4 8 36 3 92 l-7 86 84 81 c46 44 94 96 107 115 l23 35 95 -3 95
-3 77 180 c43 99 77 185 78 190 0 6 -15 19 -32 29 -18 11 -51 31 -74 45 l-41
26 0 140 c0 179 -3 188 -82 205 -34 7 -64 11 -66 8 -3 -3 -1 -47 4 -99 34
-333 -104 -646 -374 -849 -267 -201 -661 -237 -958 -89 -107 54 -191 115 -269
197 -89 93 -138 166 -185 277 -57 133 -76 222 -76 370 0 198 43 347 148 511
44 69 171 203 234 246 l44 31 -24 18 c-13 10 -40 27 -61 39 l-36 20 -49 -38z"/>
<path d="M2534 2705 c-2 -5 -4 -21 -6 -34 -2 -19 -14 -28 -54 -41 -28 -10 -60
-24 -72 -31 -19 -12 -24 -11 -46 10 l-24 23 -41 -37 c-50 -45 -59 -70 -35 -96
16 -17 16 -23 5 -41 -7 -12 -21 -44 -31 -72 -15 -46 -20 -51 -48 -54 -18 -2
-32 -6 -33 -10 0 -4 -2 -34 -4 -67 -4 -65 3 -75 46 -75 22 0 28 -6 33 -32 4
-18 16 -52 27 -76 l21 -43 -21 -23 -21 -22 45 -50 c39 -42 48 -47 63 -36 34
24 45 25 86 5 22 -11 56 -24 74 -27 29 -7 32 -11 32 -42 l0 -35 73 3 72 3 3
32 c3 27 8 33 35 38 18 4 51 18 73 31 41 23 42 23 59 4 26 -28 35 -25 83 23
48 49 50 57 22 82 -20 18 -20 18 -1 49 11 17 25 50 32 74 10 36 16 42 40 42
34 0 40 8 44 63 5 69 -2 87 -39 87 -28 0 -33 5 -47 48 -9 26 -22 61 -30 79
-12 29 -11 34 6 53 18 20 18 21 -30 70 l-49 50 -23 -22 -22 -21 -58 25 c-32
14 -66 28 -75 31 -11 4 -18 17 -18 31 0 14 -6 28 -12 33 -19 12 -130 10 -134
-2z m198 -185 c89 -45 141 -114 158 -210 50 -277 -271 -456 -485 -269 -23 20
-50 60 -68 99 -25 56 -29 73 -25 130 9 123 82 223 190 262 70 25 169 20 230
-12z"/>
<path d="M1757 2610 c-5 -21 -37 -28 -37 -9 0 6 -8 9 -17 7 -12 -2 -18 -13
-18 -28 0 -19 -5 -25 -22 -25 -36 -1 -50 -21 -30 -43 13 -14 14 -21 5 -30 -7
-7 -17 -12 -23 -12 -19 0 -13 -32 7 -38 19 -5 25 -38 7 -44 -22 -7 3 -37 29
-35 24 2 27 -1 24 -25 -2 -22 2 -28 16 -28 10 0 23 5 29 11 13 13 33 4 33 -17
0 -8 9 -14 20 -14 11 0 20 6 20 14 0 21 20 30 33 17 6 -6 19 -11 29 -11 13 0
18 8 18 31 0 28 3 31 24 25 17 -4 26 -1 31 11 3 10 1 19 -4 21 -19 6 -12 39 9
45 23 6 27 37 5 37 -21 0 -30 27 -15 45 15 19 3 38 -21 32 -22 -6 -35 10 -31
36 4 21 -27 35 -38 17 -10 -16 -40 -6 -40 15 0 22 -37 18 -43 -5z m94 -89 c58
-58 22 -154 -63 -168 -33 -5 -41 -2 -73 30 -46 46 -49 95 -6 138 23 23 38 29
71 29 33 0 48 -6 71 -29z"/>
<path d="M1861 2181 c-7 -13 -18 -17 -36 -14 -18 4 -25 1 -25 -11 0 -15 -11
-20 -37 -17 -7 1 -14 -3 -14 -9 -1 -5 -3 -14 -4 -20 -1 -5 -3 -14 -4 -19 0 -5
-10 -11 -20 -14 -15 -3 -18 -11 -14 -27 4 -15 1 -26 -10 -32 -13 -7 -14 -13
-5 -33 8 -18 8 -28 -1 -38 -9 -11 -8 -17 5 -28 9 -8 14 -22 11 -37 -3 -18 0
-26 14 -29 11 -3 20 -9 20 -14 1 -5 2 -15 3 -21 0 -7 12 -15 25 -16 13 -2 26
-12 29 -24 3 -14 10 -18 26 -14 11 3 28 -2 37 -10 13 -11 22 -13 35 -6 12 7
24 6 36 -2 16 -9 21 -8 29 7 7 12 17 15 35 11 20 -5 26 -2 31 15 3 14 13 21
29 21 19 0 24 5 24 24 0 16 7 26 21 29 16 4 19 11 14 27 -5 15 -1 25 10 34 15
10 16 16 6 35 -10 17 -10 26 0 37 9 11 8 18 -4 32 -9 10 -14 27 -11 38 4 16 0
23 -15 27 -13 3 -21 13 -21 26 0 19 -10 26 -33 22 -4 -1 -12 10 -18 23 -9 20
-16 23 -33 16 -17 -6 -25 -3 -35 12 -10 16 -15 17 -27 7 -11 -9 -21 -9 -39 -1
-21 10 -26 8 -34 -7z m88 -146 c16 -8 31 -22 35 -30 29 -76 -44 -142 -115
-104 -49 26 -43 118 9 138 37 13 39 13 71 -4z"/>
<path d="M989 896 c-62 -22 -100 -56 -127 -114 -39 -86 -21 -175 50 -242 33
-32 110 -60 163 -60 51 0 120 29 155 65 35 36 34 47 -11 71 -28 14 -31 14 -60
-10 -87 -73 -219 -16 -219 96 0 29 8 47 33 74 28 31 42 37 83 41 52 5 97 -10
123 -41 11 -13 16 -12 47 6 43 25 43 40 -1 74 -68 52 -160 67 -236 40z"/>
<path d="M1476 902 c-7 -11 -176 -413 -176 -418 0 -2 23 -4 51 -4 47 0 51 2
60 30 l11 30 109 0 108 0 16 -30 c14 -27 20 -30 65 -30 28 0 50 1 50 3 0 1
-40 97 -89 212 l-89 210 -55 3 c-31 2 -58 -1 -61 -6z"/>
<path d="M1860 695 l0 -215 44 0 45 0 3 53 3 52 36 3 c39 3 54 -9 91 -77 16
-29 21 -31 73 -31 30 0 55 3 55 8 0 4 -16 31 -36 61 l-36 53 20 21 c80 88 62
233 -34 273 -22 9 -73 14 -149 14 l-115 0 0 -215z m228 109 c16 -11 22 -25 22
-54 0 -53 -29 -72 -102 -68 l-53 3 -3 54 c-2 29 -1 60 2 67 8 20 105 18 134
-2z"/>
<path d="M2300 694 l0 -215 47 3 48 3 -3 113 c-1 63 2 121 7 129 6 12 26 -7
87 -83 140 -173 130 -164 185 -164 l49 0 0 215 0 215 -50 0 -49 0 -3 -132 -3
-132 -108 132 -108 132 -49 0 -50 0 0 -216z"/>
<path d="M2921 890 c-144 -66 -172 -242 -56 -349 76 -70 175 -79 263 -24 118
73 135 230 36 330 -65 64 -158 81 -243 43z m186 -114 c58 -63 41 -151 -37
-191 -108 -56 -230 60 -175 166 25 47 71 71 129 66 42 -4 55 -10 83 -41z"/>
<path d="M3260 865 l0 -45 75 0 75 0 1 -102 c0 -57 1 -132 2 -168 l2 -65 48
-3 47 -3 0 170 0 171 75 0 75 0 0 45 0 45 -200 0 -200 0 0 -45z"/>
</g>
</svg>
